<?xml version="1.0" standalone="no"?>
<!DOCTYPE svg PUBLIC "-//W3C//DTD SVG 20010904//EN"
 "http://www.w3.org/TR/2001/REC-SVG-20010904/DTD/svg10.dtd">
<svg version="1.0" xmlns="http://www.w3.org/2000/svg"
 width="700.000000pt" height="700.000000pt" viewBox="0 0 700.000000 700.000000"
 preserveAspectRatio="xMidYMid meet">
<metadata>
Created by potrace 1.14, written by Peter Selinger 2001-2017
</metadata>
<g transform="translate(0.000000,700.000000) scale(0.100000,-0.100000)"
fill="#000000" stroke="none">
<path d="M3151 6533 c-18 -9 -42 -31 -52 -47 -18 -29 -19 -59 -19 -476 0 -424
1 -447 20 -477 52 -86 184 -81 232 8 17 31 18 66 18 469 0 414 -1 437 -20 467
-39 64 -116 88 -179 56z"/>
<path d="M1304 5770 c-27 -11 -72 -65 -80 -96 -3 -13 -3 -41 1 -62 6 -32 48
-79 308 -340 166 -167 315 -310 331 -319 46 -24 121 -13 158 24 32 32 46 90
34 140 -9 35 -597 629 -643 649 -36 16 -77 17 -109 4z"/>
<path d="M5005 5761 c-16 -10 -166 -155 -332 -322 -332 -335 -331 -333 -298
-417 22 -54 66 -82 131 -82 l48 0 318 318 c336 334 344 345 328 417 -20 87
-122 132 -195 86z"/>
<path d="M3045 5364 c-404 -59 -757 -243 -1001 -522 -100 -115 -134 -168 -134
-211 0 -104 109 -172 197 -123 17 9 58 51 90 92 190 240 453 403 764 471 124
28 365 33 489 10 371 -67 706 -298 900 -622 78 -128 147 -315 169 -456 l8 -53
-25 16 c-160 105 -354 187 -542 230 -37 9 -142 18 -245 21 -155 5 -197 2 -304
-16 -298 -51 -587 -189 -816 -389 -120 -104 -237 -248 -257 -313 -9 -33 -8
-44 13 -86 20 -39 32 -51 71 -67 74 -30 113 -14 185 77 125 159 291 295 466
383 85 43 244 97 357 121 118 24 353 24 470 -1 178 -38 359 -122 517 -241 280
-208 454 -486 523 -831 12 -60 23 -117 26 -126 5 -15 17 -13 116 23 203 72
331 82 497 38 255 -68 475 -294 536 -552 8 -34 18 -108 21 -164 8 -118 25
-156 79 -179 69 -28 135 -7 176 58 18 30 20 44 15 153 -6 148 -32 258 -90 381
-143 301 -398 510 -711 580 -86 19 -275 25 -377 12 l-56 -8 -22 68 c-51 156
-155 340 -277 492 l-60 75 -6 150 c-4 91 -14 188 -27 247 -120 565 -522 1015
-1064 1192 -158 52 -258 67 -456 71 -102 2 -198 1 -215 -1z"/>
<path d="M1810 4438 c-95 -64 -92 -207 6 -253 71 -33 142 -3 183 78 29 59 23
104 -23 154 -27 29 -41 36 -82 40 -40 4 -56 0 -84 -19z"/>
<path d="M1717 4092 c-15 -9 -38 -37 -50 -62 -20 -42 -22 -59 -21 -235 0 -218
14 -310 74 -496 65 -199 158 -369 293 -533 32 -38 57 -72 57 -77 0 -5 -24 -9
-54 -9 -29 0 -93 -7 -141 -15 -311 -55 -557 -272 -655 -580 -16 -51 -24 -104
-27 -195 -8 -195 30 -326 145 -501 105 -158 247 -256 459 -315 l128 -36 1430
-5 c787 -2 1608 0 1825 5 l395 10 91 30 c50 16 100 36 113 43 33 21 64 92 56
129 l-7 30 94 0 c118 0 156 17 224 96 67 77 151 207 165 254 26 87 -29 169
-118 177 -69 6 -100 -18 -159 -119 -37 -63 -78 -112 -169 -200 -107 -106 -123
-118 -155 -118 -19 0 -80 -14 -135 -31 l-100 -31 -1745 0 -1745 0 -100 27
c-55 14 -123 39 -152 56 -157 90 -258 252 -270 434 -12 192 82 379 248 489 87
57 159 79 279 84 97 4 114 1 234 -32 71 -20 130 -35 131 -34 1 2 -2 53 -7 113
-5 61 -7 174 -5 251 7 168 -2 195 -74 231 -56 28 -71 42 -129 129 -166 243
-248 553 -221 833 10 114 2 149 -45 190 -28 25 -43 31 -82 31 -27 0 -59 -8
-75 -18z"/>
<path d="M514 3901 c-85 -52 -80 -177 9 -231 30 -19 53 -20 467 -20 403 0 438
1 469 18 89 48 94 180 8 232 -30 19 -53 20 -477 20 -418 0 -447 -1 -476 -19z"/>
<path d="M4944 3888 c-43 -40 -57 -90 -39 -142 34 -97 29 -96 530 -96 471 0
478 1 515 62 13 21 20 51 20 82 0 43 -4 53 -39 87 l-39 39 -456 0 -456 0 -36
-32z"/>
<path d="M2240 3281 c-42 -22 -80 -83 -80 -131 -1 -147 193 -192 260 -61 37
74 17 149 -52 191 -41 25 -83 25 -128 1z"/>
</g>
</svg>
